<mxfile host="app.diagrams.net" modified="2023-03-23T00:18:22.834Z" agent="5.0 (Windows NT 10.0; Win64; x64) AppleWebKit/537.36 (KHTML, like Gecko) Chrome/111.0.0.0 Safari/537.36 Edg/111.0.1661.44" etag="V07UHLoCvlR1L2y7efx5" version="21.0.10" type="github">
  <diagram id="C5RBs43oDa-KdzZeNtuy" name="Page-1">
    <mxGraphModel dx="1142" dy="768" grid="1" gridSize="10" guides="1" tooltips="1" connect="1" arrows="1" fold="1" page="1" pageScale="1" pageWidth="827" pageHeight="1169" math="0" shadow="0">
      <root>
        <mxCell id="WIyWlLk6GJQsqaUBKTNV-0" />
        <mxCell id="WIyWlLk6GJQsqaUBKTNV-1" parent="WIyWlLk6GJQsqaUBKTNV-0" />
        <mxCell id="9xxMWl_6_SOhAE-gfJEw-6" value="" style="edgeStyle=orthogonalEdgeStyle;rounded=0;orthogonalLoop=1;jettySize=auto;html=1;" edge="1" parent="WIyWlLk6GJQsqaUBKTNV-1" source="WIyWlLk6GJQsqaUBKTNV-3" target="9xxMWl_6_SOhAE-gfJEw-5">
          <mxGeometry relative="1" as="geometry" />
        </mxCell>
        <mxCell id="WIyWlLk6GJQsqaUBKTNV-3" value="페이지 접속" style="rounded=1;whiteSpace=wrap;html=1;fontSize=12;glass=0;strokeWidth=1;shadow=0;" parent="WIyWlLk6GJQsqaUBKTNV-1" vertex="1">
          <mxGeometry x="310" y="160" width="170" height="40" as="geometry" />
        </mxCell>
        <mxCell id="9xxMWl_6_SOhAE-gfJEw-9" value="" style="edgeStyle=orthogonalEdgeStyle;rounded=0;orthogonalLoop=1;jettySize=auto;html=1;" edge="1" parent="WIyWlLk6GJQsqaUBKTNV-1" source="9xxMWl_6_SOhAE-gfJEw-5" target="9xxMWl_6_SOhAE-gfJEw-8">
          <mxGeometry relative="1" as="geometry" />
        </mxCell>
        <mxCell id="9xxMWl_6_SOhAE-gfJEw-5" value="DB에서 이전 게임 결과 호출 후 card 나열하는 html 생성해서 id=&quot;results&quot;에 append&lt;br&gt;&lt;br&gt;show_results()&lt;br&gt;[GET] → /results" style="whiteSpace=wrap;html=1;rounded=1;glass=0;strokeWidth=1;shadow=0;" vertex="1" parent="WIyWlLk6GJQsqaUBKTNV-1">
          <mxGeometry x="310" y="226" width="170" height="100" as="geometry" />
        </mxCell>
        <mxCell id="9xxMWl_6_SOhAE-gfJEw-21" value="" style="edgeStyle=orthogonalEdgeStyle;rounded=0;orthogonalLoop=1;jettySize=auto;html=1;" edge="1" parent="WIyWlLk6GJQsqaUBKTNV-1" source="9xxMWl_6_SOhAE-gfJEw-8" target="9xxMWl_6_SOhAE-gfJEw-20">
          <mxGeometry relative="1" as="geometry" />
        </mxCell>
        <mxCell id="9xxMWl_6_SOhAE-gfJEw-8" value="id=&quot;game&quot;, &quot;autosave&quot;&lt;br&gt;&amp;nbsp;숨기기&lt;br&gt;load_initial_image() 실행" style="whiteSpace=wrap;html=1;rounded=1;glass=0;strokeWidth=1;shadow=0;" vertex="1" parent="WIyWlLk6GJQsqaUBKTNV-1">
          <mxGeometry x="310" y="350" width="170" height="60" as="geometry" />
        </mxCell>
        <mxCell id="9xxMWl_6_SOhAE-gfJEw-10" value="body" style="rounded=0;whiteSpace=wrap;html=1;align=left;glass=0;comic=0;verticalAlign=top;" vertex="1" parent="WIyWlLk6GJQsqaUBKTNV-1">
          <mxGeometry x="50" y="160" width="210" height="410" as="geometry" />
        </mxCell>
        <mxCell id="9xxMWl_6_SOhAE-gfJEw-11" value="div class=&quot;top&quot;" style="rounded=0;whiteSpace=wrap;html=1;align=left;glass=0;comic=0;verticalAlign=top;" vertex="1" parent="WIyWlLk6GJQsqaUBKTNV-1">
          <mxGeometry x="60" y="190" width="190" height="50" as="geometry" />
        </mxCell>
        <mxCell id="9xxMWl_6_SOhAE-gfJEw-12" value="div class=&quot;middle&quot;" style="rounded=0;whiteSpace=wrap;html=1;align=left;glass=0;comic=0;verticalAlign=top;" vertex="1" parent="WIyWlLk6GJQsqaUBKTNV-1">
          <mxGeometry x="60" y="250" width="190" height="150" as="geometry" />
        </mxCell>
        <mxCell id="9xxMWl_6_SOhAE-gfJEw-13" value="div class=&quot;nameandgo&quot;" style="rounded=0;whiteSpace=wrap;html=1;align=left;glass=0;comic=0;verticalAlign=top;" vertex="1" parent="WIyWlLk6GJQsqaUBKTNV-1">
          <mxGeometry x="70" y="280" width="170" height="110" as="geometry" />
        </mxCell>
        <mxCell id="9xxMWl_6_SOhAE-gfJEw-18" value="div class=&quot;bottom&quot;" style="rounded=0;whiteSpace=wrap;html=1;align=left;glass=0;comic=0;verticalAlign=top;" vertex="1" parent="WIyWlLk6GJQsqaUBKTNV-1">
          <mxGeometry x="60" y="410" width="190" height="107" as="geometry" />
        </mxCell>
        <mxCell id="9xxMWl_6_SOhAE-gfJEw-17" value="div id=&quot;autosave&quot;" style="rounded=0;whiteSpace=wrap;html=1;align=left;glass=0;comic=0;verticalAlign=top;" vertex="1" parent="WIyWlLk6GJQsqaUBKTNV-1">
          <mxGeometry x="60" y="527" width="190" height="30" as="geometry" />
        </mxCell>
        <mxCell id="9xxMWl_6_SOhAE-gfJEw-14" value="div id=&quot;game&quot;" style="rounded=0;whiteSpace=wrap;html=1;align=left;glass=0;comic=0;verticalAlign=top;" vertex="1" parent="WIyWlLk6GJQsqaUBKTNV-1">
          <mxGeometry x="70" y="437" width="170" height="30" as="geometry" />
        </mxCell>
        <mxCell id="9xxMWl_6_SOhAE-gfJEw-15" value="div id=&quot;results&quot;" style="rounded=0;whiteSpace=wrap;html=1;align=left;glass=0;comic=0;verticalAlign=top;" vertex="1" parent="WIyWlLk6GJQsqaUBKTNV-1">
          <mxGeometry x="70" y="477" width="170" height="30" as="geometry" />
        </mxCell>
        <mxCell id="9xxMWl_6_SOhAE-gfJEw-25" value="" style="edgeStyle=orthogonalEdgeStyle;rounded=0;orthogonalLoop=1;jettySize=auto;html=1;" edge="1" parent="WIyWlLk6GJQsqaUBKTNV-1" source="9xxMWl_6_SOhAE-gfJEw-20" target="9xxMWl_6_SOhAE-gfJEw-24">
          <mxGeometry relative="1" as="geometry" />
        </mxCell>
        <mxCell id="9xxMWl_6_SOhAE-gfJEw-20" value="button 클릭 시 game() 실행" style="whiteSpace=wrap;html=1;rounded=1;glass=0;strokeWidth=1;shadow=0;" vertex="1" parent="WIyWlLk6GJQsqaUBKTNV-1">
          <mxGeometry x="310" y="437" width="170" height="33" as="geometry" />
        </mxCell>
        <mxCell id="9xxMWl_6_SOhAE-gfJEw-22" value="input id=&quot;name&quot;" style="rounded=0;whiteSpace=wrap;html=1;align=left;glass=0;comic=0;verticalAlign=top;" vertex="1" parent="WIyWlLk6GJQsqaUBKTNV-1">
          <mxGeometry x="80" y="310" width="150" height="30" as="geometry" />
        </mxCell>
        <mxCell id="9xxMWl_6_SOhAE-gfJEw-23" value="button onclick=game()" style="rounded=0;whiteSpace=wrap;html=1;align=left;glass=0;comic=0;verticalAlign=top;" vertex="1" parent="WIyWlLk6GJQsqaUBKTNV-1">
          <mxGeometry x="80" y="350" width="150" height="30" as="geometry" />
        </mxCell>
        <mxCell id="9xxMWl_6_SOhAE-gfJEw-27" value="" style="edgeStyle=orthogonalEdgeStyle;rounded=0;orthogonalLoop=1;jettySize=auto;html=1;" edge="1" parent="WIyWlLk6GJQsqaUBKTNV-1" source="9xxMWl_6_SOhAE-gfJEw-24" target="9xxMWl_6_SOhAE-gfJEw-26">
          <mxGeometry relative="1" as="geometry" />
        </mxCell>
        <mxCell id="9xxMWl_6_SOhAE-gfJEw-24" value="id=&quot;game&quot; 보이기&lt;br&gt;시작메세지 alert&lt;br&gt;id=&quot;result&quot; 숨기기" style="whiteSpace=wrap;html=1;rounded=1;glass=0;strokeWidth=1;shadow=0;" vertex="1" parent="WIyWlLk6GJQsqaUBKTNV-1">
          <mxGeometry x="310" y="497" width="170" height="60" as="geometry" />
        </mxCell>
        <mxCell id="9xxMWl_6_SOhAE-gfJEw-26" value="이미지 클릭 시 autosave() 실행&lt;br&gt;" style="whiteSpace=wrap;html=1;rounded=1;glass=0;strokeWidth=1;shadow=0;" vertex="1" parent="WIyWlLk6GJQsqaUBKTNV-1">
          <mxGeometry x="310" y="585" width="170" height="60" as="geometry" />
        </mxCell>
        <mxCell id="9xxMWl_6_SOhAE-gfJEw-36" value="" style="edgeStyle=orthogonalEdgeStyle;rounded=0;orthogonalLoop=1;jettySize=auto;html=1;" edge="1" parent="WIyWlLk6GJQsqaUBKTNV-1" source="9xxMWl_6_SOhAE-gfJEw-28" target="9xxMWl_6_SOhAE-gfJEw-26">
          <mxGeometry relative="1" as="geometry" />
        </mxCell>
        <mxCell id="9xxMWl_6_SOhAE-gfJEw-28" value="load_initial_image()&lt;br&gt;[POST] → /autosave()&lt;br&gt;{&quot;chosen&quot;: string,&lt;br&gt;&quot;dropped&quot;: string,&lt;br&gt;&quot;candidate&quot;: {},&lt;br&gt;&quot;msg&quot;: string}" style="whiteSpace=wrap;html=1;rounded=1;glass=0;strokeWidth=1;shadow=0;" vertex="1" parent="WIyWlLk6GJQsqaUBKTNV-1">
          <mxGeometry x="590" y="562.5" width="170" height="105" as="geometry" />
        </mxCell>
        <mxCell id="9xxMWl_6_SOhAE-gfJEw-33" value="" style="edgeStyle=orthogonalEdgeStyle;rounded=0;orthogonalLoop=1;jettySize=auto;html=1;" edge="1" parent="WIyWlLk6GJQsqaUBKTNV-1" source="9xxMWl_6_SOhAE-gfJEw-32" target="9xxMWl_6_SOhAE-gfJEw-8">
          <mxGeometry relative="1" as="geometry" />
        </mxCell>
        <mxCell id="9xxMWl_6_SOhAE-gfJEw-32" value="load_initial_image()&lt;br&gt;[GET] → /autosave()&lt;br&gt;{&quot;candidate&quot;: {&quot;name&quot;: url}}" style="whiteSpace=wrap;html=1;rounded=1;glass=0;strokeWidth=1;shadow=0;" vertex="1" parent="WIyWlLk6GJQsqaUBKTNV-1">
          <mxGeometry x="590" y="350" width="170" height="60" as="geometry" />
        </mxCell>
        <mxCell id="9xxMWl_6_SOhAE-gfJEw-37" value="app.py" style="whiteSpace=wrap;html=1;rounded=1;glass=0;strokeWidth=1;shadow=0;" vertex="1" parent="WIyWlLk6GJQsqaUBKTNV-1">
          <mxGeometry x="590" y="160" width="170" height="40" as="geometry" />
        </mxCell>
      </root>
    </mxGraphModel>
  </diagram>
</mxfile>
